<svg xmlns="http://www.w3.org/2000/svg" xmlns:xlink="http://www.w3.org/1999/xlink" width="87" height="87" viewBox="0 0 87 87">
    <defs>
        <path id="a" d="M.154 1.029h86.251v86.405H.155z"/>
    </defs>
    <g fill="none" fill-rule="evenodd">
        <g transform="translate(0 -1)">
            <mask id="b" fill="#fff">
                <use xlink:href="#a"/>
            </mask>
            <path fill="#FBD971" d="M86.405 44.231c0 23.855-19.347 43.203-43.202 43.203C19.345 87.434 0 68.086 0 44.23 0 20.373 19.345 1.03 43.203 1.03c23.855 0 43.202 19.344 43.202 43.202z" mask="url(#b)"/>
        </g>
        <path fill="#F29C1F" d="M16.452 40.117c-.522 0-1.044-.21-1.445-.604a2.056 2.056 0 0 1 0-2.911l17.447-17.457a2.06 2.06 0 0 1 2.913 2.91L17.91 39.513a2.041 2.041 0 0 1-1.458.604z"/>
        <path fill="#F29C1F" d="M33.912 40.117c-.525 0-1.057-.21-1.458-.604L15.007 22.055a2.056 2.056 0 0 1 0-2.91 2.047 2.047 0 0 1 2.903 0l17.457 17.457a2.061 2.061 0 0 1-1.455 3.515zM52.483 40.117c-.522 0-1.044-.21-1.445-.604a2.056 2.056 0 0 1 0-2.911l17.447-17.457a2.06 2.06 0 0 1 2.913 2.91L53.941 39.513a2.045 2.045 0 0 1-1.458.604z"/>
        <path fill="#F29C1F" d="M69.94 40.117c-.522 0-1.054-.21-1.455-.604L51.038 22.055a2.056 2.056 0 0 1 0-2.91 2.047 2.047 0 0 1 2.903 0l17.457 17.457a2.061 2.061 0 0 1-1.458 3.515z"/>
        <path fill="#FB7B76" d="M43.203 53.517v16.04c0 4.531 3.695 8.237 8.226 8.237h2.06c4.52 0 8.225-3.706 8.225-8.237v-16.04c-3.515.038-14.785 0-18.511 0z"/>
        <path fill="#E64C3C" d="M52.524 67.117a2.063 2.063 0 0 1-2.06-2.06v-.342c.01-5.274-.141-8.526-.442-9.691a2.078 2.078 0 0 1-.653-1.507c0-1.137.926-2.06 2.06-2.06 2.65 0 2.851 3.436 3.013 6.197.142 2.412.142 5.215.142 7.072v.331c0 1.134-.926 2.06-2.06 2.06z"/>
        <path fill="#F0C419" d="M63.774 55.577H18.512a2.064 2.064 0 0 1-2.06-2.06c0-1.137.926-2.06 2.06-2.06h45.262c1.134 0 2.06.923 2.06 2.06 0 1.134-.926 2.06-2.06 2.06z"/>
    </g>
</svg>
