<svg xmlns="http://www.w3.org/2000/svg" xmlns:xlink="http://www.w3.org/1999/xlink" width="155" height="156" viewBox="0 0 155 156">
    <defs>
        <path id="a" d="M0 .08h154.92v155.124H0z"/>
        <radialGradient id="c" fx="50%" fy="50%" gradientTransform="matrix(0 1 -1.01564 0 1.008 0)">
            <stop offset="0%" stop-color="#FFC600"/>
            <stop offset="100%" stop-color="#EEE"/>
        </radialGradient>
    </defs>
    <g fill="none" fill-rule="evenodd">
        <g transform="translate(0 .716)">
            <mask id="b" fill="#fff">
                <use xlink:href="#a"/>
            </mask>
            <path fill="#EEE" d="M154.92 77.642c0 23.702-10.619 44.921-27.35 59.145-13.513 11.484-31 18.417-50.11 18.417-.477 0-.961-.008-1.439-.016-19.013-.342-36.357-7.554-49.663-19.262C10.198 121.72 0 100.874 0 77.642 0 34.806 34.68.08 77.46.08c42.78 0 77.46 34.726 77.46 77.562" mask="url(#b)"/>
        </g>
        <path fill="url(#c)" d="M153 78.67H81.2l70.916-11.233-.103-.653-70.917 11.233 68.286-22.188-.204-.629L80.891 77.39l63.975-32.598-.3-.588L80.59 76.8l58.09-42.205-.389-.535-58.09 42.204 50.773-50.772-.467-.467-50.772 50.772 42.204-58.089-.535-.389L79.2 75.41l32.598-63.977-.588-.299L78.611 75.11 100.8 6.822l-.629-.204-22.188 68.286L89.216 3.987l-.653-.103L77.33 74.801V3h-.66v71.8L65.437 3.885l-.653.103 11.233 70.917L53.829 6.618l-.629.204L75.39 75.11 42.79 11.134l-.588.3L74.8 75.41 32.596 17.32l-.535.388 42.204 58.09-50.772-50.773-.467.467 50.772 50.772L15.71 34.061l-.389.535L73.41 76.8 9.433 44.203l-.3.588L73.11 77.389 4.822 55.2l-.204.629 68.285 22.188L1.987 66.784l-.103.653L72.8 78.67H1v.66h71.8L1.884 90.563l.103.653 70.916-11.233-68.285 22.188.204.629L73.11 80.61 9.133 113.21l.3.588L73.41 81.2l-58.09 42.205.389.535 58.09-42.204-50.773 50.772.467.467 50.772-50.772-42.204 58.089.535.389L74.8 82.59l-32.598 63.977.588.299L75.389 82.89 53.2 151.178l.629.204 22.188-68.286-11.233 70.917.653.103L76.67 83.199V155h.66V83.2l11.233 70.916.653-.103-11.233-70.917 22.188 68.286.629-.204L78.61 82.89l32.598 63.976.588-.3L79.2 82.59l42.205 58.09.535-.388-42.204-58.09 50.772 50.773.467-.467-50.772-50.772 58.089 42.204.389-.535L80.59 81.2l63.977 32.598.299-.588-63.975-32.598 68.287 22.189.204-.629-68.286-22.188 70.917 11.233.103-.653L81.2 79.33H153z"/>
        <path fill="#676562" d="M58.89 130.028a3.422 3.422 0 0 1-3.416-3.42v-.656a3.4 3.4 0 0 1 1.025-2.441 3.414 3.414 0 0 1-1.025-2.424v-.657c0-.838.302-1.624.837-2.235a3.383 3.383 0 0 1-.837-2.236v-.656c0-.938.377-1.805 1.015-2.433a3.404 3.404 0 0 1-1.015-2.432v-.612c0-.115.007-.184.017-.253.117-1.836 1.357-3.21 2.884-3.21h.494c-.408-1.282-1.822-3.75-6.72-5.036h-2.72c-3.867 0-7.09-3.02-7.187-6.733a6.868 6.868 0 0 1 1.958-5.008c.172-.177.353-.344.54-.5-3.784-.097-6.903-3.08-6.997-6.73a6.87 6.87 0 0 1 1.957-5.01c.172-.176.351-.341.537-.497h-.458a6.855 6.855 0 0 1-4.947-2.089 6.877 6.877 0 0 1-1.957-5.008c.096-3.713 3.32-6.733 7.187-6.733h.175a7.353 7.353 0 0 1-.537-.498 6.871 6.871 0 0 1-1.957-5.008c.094-3.651 3.213-6.634 6.996-6.73a7.083 7.083 0 0 1-.539-.5 6.868 6.868 0 0 1-1.958-5.008c.096-3.714 3.32-6.735 7.187-6.735h2.299a7.342 7.342 0 0 1-.537-.497 6.87 6.87 0 0 1-1.957-5.008c.096-3.713 3.319-6.734 7.187-6.734h1.078c3.982-4.71 11.276-7.638 19.123-7.638 7.836 0 15.119 2.918 19.123 7.638h1.078c3.868 0 7.092 3.021 7.188 6.734a6.875 6.875 0 0 1-1.958 5.008 7.353 7.353 0 0 1-.538.497h2.3c3.868 0 7.091 3.022 7.187 6.735a6.875 6.875 0 0 1-1.958 5.007 7.421 7.421 0 0 1-.54.5c3.783.097 6.903 3.08 6.998 6.731a6.876 6.876 0 0 1-1.959 5.008 7.509 7.509 0 0 1-.536.498h.174c3.867 0 7.092 3.02 7.188 6.733a6.874 6.874 0 0 1-1.959 5.008 6.849 6.849 0 0 1-4.946 2.09h-.458c.186.155.366.32.537.497a6.874 6.874 0 0 1 1.959 5.009c-.095 3.65-3.215 6.633-6.997 6.73.187.157.367.323.54.5a6.876 6.876 0 0 1 1.957 5.008c-.096 3.713-3.32 6.733-7.187 6.733h-2.726c-4.895 1.304-6.308 3.763-6.714 5.035a3.42 3.42 0 0 1 3.394 3.42v.656c0 .94-.378 1.81-1.022 2.44a3.38 3.38 0 0 1 1.022 2.425v.656a3.38 3.38 0 0 1-.837 2.236c.535.61.837 1.397.837 2.235v.657c0 .936-.377 1.804-1.015 2.432a3.403 3.403 0 0 1 1.015 2.433v.61c0 .117-.007.186-.016.254-.118 1.836-1.357 3.212-2.883 3.212H58.89z"/>
        <path fill="#FFF" d="M76.622 17.867c-7.907 0-15.287 2.91-19.485 7.639h-.717c-4.293 0-7.874 3.367-7.98 7.508a7.658 7.658 0 0 0 1.462 4.73h-.473c-4.294 0-7.875 3.369-7.982 7.51a7.656 7.656 0 0 0 1.624 4.944c-3.424.803-6.033 3.769-6.123 7.294a7.656 7.656 0 0 0 1.572 4.877c-3.579.691-6.345 3.73-6.44 7.363a7.66 7.66 0 0 0 2.184 5.584 7.63 7.63 0 0 0 4.225 2.223 7.658 7.658 0 0 0-1.541 4.837c.09 3.525 2.7 6.49 6.123 7.294a7.655 7.655 0 0 0-1.624 4.945c.107 4.14 3.688 7.508 7.983 7.508h2.616c3.403.92 4.937 2.393 5.627 3.517-1.607.349-2.833 1.88-2.971 3.835a2.253 2.253 0 0 0-.022.306v.657a4.2 4.2 0 0 0 .768 2.432 4.2 4.2 0 0 0-.768 2.433v.656c0 .809.227 1.579.641 2.236a4.18 4.18 0 0 0-.641 2.235v.657c0 .874.275 1.718.776 2.422a4.202 4.202 0 0 0-.776 2.443v.656a4.218 4.218 0 0 0 4.21 4.216H94.868c1.941 0 3.515-1.678 3.673-3.909.015-.107.022-.205.022-.307V125.952a4.2 4.2 0 0 0-.769-2.433 4.198 4.198 0 0 0 .769-2.432v-.657c0-.809-.228-1.578-.64-2.235.412-.657.64-1.427.64-2.236v-.656c0-.874-.275-1.718-.776-2.423a4.196 4.196 0 0 0 .776-2.442v-.657a4.22 4.22 0 0 0-3.049-4.052c.664-1.135 2.187-2.668 5.682-3.606h2.618c4.294 0 7.875-3.367 7.981-7.508a7.646 7.646 0 0 0-1.624-4.945c3.424-.804 6.033-3.769 6.124-7.294a7.653 7.653 0 0 0-1.541-4.837 7.628 7.628 0 0 0 4.224-2.223 7.657 7.657 0 0 0 2.184-5.584c-.093-3.633-2.861-6.672-6.439-7.363a7.66 7.66 0 0 0 1.572-4.877c-.09-3.525-2.7-6.49-6.124-7.294a7.652 7.652 0 0 0 1.625-4.945c-.107-4.14-3.688-7.509-7.982-7.509h-.472a7.657 7.657 0 0 0 1.462-4.73c-.107-4.14-3.687-7.508-7.982-7.508h-.716c-4.203-4.731-11.58-7.639-19.485-7.639m0 1.592c8.051 0 15.064 3.077 18.74 7.628.006.006.014.01.022.01h1.439c3.362 0 6.307 2.593 6.392 5.958a6.116 6.116 0 0 1-6.108 6.281h6.708c3.36 0 6.306 2.593 6.392 5.959a6.116 6.116 0 0 1-6.11 6.28h4.217c3.362 0 6.306 2.593 6.393 5.958a6.117 6.117 0 0 1-6.11 6.282h4.584c3.362 0 6.306 2.592 6.393 5.957a6.116 6.116 0 0 1-6.11 6.28h-4.867a6.117 6.117 0 0 1 6.11 6.283c-.087 3.365-3.031 5.957-6.393 5.957h-4.216a6.116 6.116 0 0 1 6.11 6.282c-.087 3.365-3.033 5.957-6.393 5.957h-2.819l-.008.002c-7.228 1.86-7.557 6.22-7.572 6.598 0 .016-.013.027-.028.027h.967a2.62 2.62 0 0 1 2.619 2.623v.657a2.62 2.62 0 0 1-1.649 2.432 2.612 2.612 0 0 1 .727.45c.56.48.922 1.186.922 1.984v.655c0 .95-.509 1.776-1.265 2.236a2.612 2.612 0 0 1 1.265 2.235v.657a2.62 2.62 0 0 1-1.649 2.432 2.621 2.621 0 0 1 1.649 2.433v.656c0 .057-.013.112-.017.169-.086 1.372-.982 2.455-2.088 2.455H58.89a2.622 2.622 0 0 1-2.62-2.624v-.656a2.62 2.62 0 0 1 1.65-2.433 2.596 2.596 0 0 1-.712-.437l-.015-.013a2.608 2.608 0 0 1-.923-1.982v-.657c0-.95.51-1.775 1.265-2.235a2.615 2.615 0 0 1-1.265-2.236v-.656a2.62 2.62 0 0 1 1.65-2.433 2.62 2.62 0 0 1-1.65-2.432v-.657c0-.058.013-.111.017-.168.087-1.372.983-2.455 2.088-2.455h1.482a.028.028 0 0 1-.029-.027c-.014-.377-.342-4.739-7.572-6.598a.023.023 0 0 0-.008-.002H49.43c-3.362 0-6.307-2.592-6.394-5.957a6.117 6.117 0 0 1 6.11-6.282H44.93c-3.362 0-6.307-2.592-6.393-5.957a6.116 6.116 0 0 1 6.109-6.282h-4.867a6.115 6.115 0 0 1-6.109-6.28c.086-3.366 3.03-5.958 6.393-5.958h4.583a6.116 6.116 0 0 1-6.109-6.282c.086-3.365 3.03-5.957 6.393-5.957h4.217a6.117 6.117 0 0 1-6.11-6.281c.086-3.366 3.031-5.959 6.392-5.959h6.709a6.116 6.116 0 0 1-6.11-6.281c.087-3.365 3.031-5.958 6.392-5.958h1.44a.03.03 0 0 0 .021-.01c3.677-4.551 10.69-7.628 18.741-7.628"/>
        <path fill="#676562" d="M77.46 138.054c-5.944 0-10.78-3.78-10.78-8.428v-.796h21.56v.796c0 4.647-4.835 8.428-10.78 8.428"/>
        <path fill="#FFF" d="M89.035 128.034h-23.15v1.592c0 5.086 5.192 9.224 11.574 9.224 6.384 0 11.576-4.138 11.576-9.224v-1.592zm-1.59 1.592c0 4.215-4.47 7.632-9.986 7.632-5.514 0-9.984-3.417-9.984-7.632h19.97z"/>
        <path fill="#4B464B" d="M94.355 113.061H58.89a2.622 2.622 0 0 1-2.62-2.623v-.656a2.622 2.622 0 0 1 2.62-2.624h35.465a2.622 2.622 0 0 1 2.62 2.624v.656a2.622 2.622 0 0 1-2.62 2.623"/>
        <path fill="#4B464B" d="M94.355 118.583H58.89a2.622 2.622 0 0 1-2.62-2.624v-.656a2.622 2.622 0 0 1 2.62-2.624h35.465a2.622 2.622 0 0 1 2.62 2.624v.656a2.622 2.622 0 0 1-2.62 2.624"/>
        <path fill="#4B464B" d="M94.355 123.71H58.89a2.623 2.623 0 0 1-2.62-2.624v-.656a2.623 2.623 0 0 1 2.62-2.624h35.465a2.623 2.623 0 0 1 2.62 2.624v.656a2.623 2.623 0 0 1-2.62 2.624"/>
        <path fill="#4B464B" d="M94.355 129.232H58.89a2.623 2.623 0 0 1-2.62-2.624v-.656a2.623 2.623 0 0 1 2.62-2.624h35.465a2.623 2.623 0 0 1 2.62 2.624v.656a2.623 2.623 0 0 1-2.62 2.624"/>
        <path fill="#EC8582" d="M119.574 69.772c-.087-3.365-3.03-5.957-6.393-5.957h-4.584a6.117 6.117 0 0 0 6.11-6.282c-.087-3.364-3.032-5.957-6.393-5.957h-4.216a6.116 6.116 0 0 0 6.11-6.282c-.087-3.365-3.032-5.958-6.393-5.958h-6.709a6.116 6.116 0 0 0 6.11-6.281c-.086-3.365-3.031-5.958-6.393-5.958h-1.44a.029.029 0 0 1-.02-.01c-3.677-4.551-10.69-7.629-18.74-7.629-8.053 0-15.065 3.078-18.741 7.629a.03.03 0 0 1-.023.01h-1.438c-3.362 0-6.306 2.593-6.393 5.958a6.116 6.116 0 0 0 6.11 6.281h-6.71c-3.36 0-6.305 2.593-6.391 5.958a6.116 6.116 0 0 0 6.109 6.282H44.93c-3.362 0-6.307 2.593-6.392 5.957a6.115 6.115 0 0 0 6.108 6.282h-4.583c-3.362 0-6.307 2.592-6.392 5.957a6.115 6.115 0 0 0 6.108 6.281h4.867a6.115 6.115 0 0 0-6.108 6.282c.085 3.365 3.03 5.958 6.392 5.958h4.216a6.116 6.116 0 0 0-6.11 6.28c.087 3.366 3.031 5.958 6.394 5.958h2.818c.003 0 .005 0 .008.002 7.229 1.859 7.556 6.22 7.571 6.598.001.016.015.027.03.027h33.531a.028.028 0 0 0 .028-.027c.015-.377.343-4.739 7.572-6.598a.028.028 0 0 1 .008-.002h2.819c3.36 0 6.306-2.592 6.392-5.957a6.115 6.115 0 0 0-6.11-6.28h4.217c3.361 0 6.306-2.594 6.393-5.96a6.116 6.116 0 0 0-6.11-6.28h4.867a6.117 6.117 0 0 0 6.11-6.282"/>
        <path fill="#FFA38E" d="M77.46 26.293l.012 2.555c.035.843-.108 1.73.261 2.512a3.05 3.05 0 0 0 1.81 1.657c.4.14.82.17 1.246.157l1.277-.005c.422.005.853-.032 1.282.051.426.08.835.251 1.19.5a3.14 3.14 0 0 1 1.318 2.164 3.127 3.127 0 0 1-.721 2.44 3.148 3.148 0 0 1-2.299 1.105l-10.21.052-2.552.013-1.276.005c-.428.01-.856-.02-1.243.055a2.861 2.861 0 0 0-1.925 1.324 2.885 2.885 0 0 0-.31 2.307 2.866 2.866 0 0 0 1.492 1.774c.357.175.75.273 1.147.287.409.011.845.002 1.268.004l5.103-.008 10.208-.017c.864.013 1.673-.033 2.581.026.912.113 1.759.632 2.281 1.387a3.3 3.3 0 0 1 .503 2.629 3.323 3.323 0 0 1-1.61 2.14c-.4.228-.851.363-1.31.404-.467.03-.862.008-1.296.016l-2.553.004-5.104.008-10.207.016-2.552.005-1.276.002-.638.001a3.305 3.305 0 0 0-.576.058 2.786 2.786 0 0 0-2.18 2.4c-.035.364-.012.83-.017 1.244-.055.832.183 1.577.706 2.16a2.756 2.756 0 0 0 2.036.918l5.102-.007 10.207-.018 10.208-.016 2.552-.005c.905-.043 1.903.303 2.57.975.688.653 1.057 1.638 1.028 2.56v.638a4.035 4.035 0 0 1-.06.704 3.351 3.351 0 0 1-.548 1.309 3.435 3.435 0 0 1-2.37 1.445c-.496.053-.887.023-1.32.033l-1.276.002-5.104.008-10.208.017-10.208-.016c-.443.002-.827-.017-1.18.074-.363.087-.706.25-1.003.476-.596.45-.99 1.16-1.045 1.907-.023.364-.008.835-.013 1.247-.008.44.018.772.144 1.139.239.71.79 1.308 1.478 1.606a2.7 2.7 0 0 0 1.099.22l1.276.003 2.552.005 5.103.008 10.207.016 5.105.01 2.552.003 1.276.002c.441-.005.933.063 1.363.24a3.359 3.359 0 0 1 1.913 1.952c.17.432.225.93.215 1.363-.008.425.024.84-.045 1.322a3.36 3.36 0 0 1-2.777 2.793c-.479.072-.898.037-1.321.044l-20.416-.033-5.104-.008-1.276-.002c-.434.005-.85-.028-1.222.054a2.82 2.82 0 0 0-2.228 2.426c-.037.374-.014.832-.022 1.248.006.422-.02.867.03 1.242.053.389.19.765.397 1.098a2.799 2.799 0 0 0 1.89 1.284c.375.07.803.042 1.232.048l1.276.003 20.415.035 5.105.026c.419.009.852-.025 1.303.063.44.084.863.262 1.228.521a3.231 3.231 0 0 1 1.344 2.23c.047.453.02.863.02 1.298a3.162 3.162 0 0 1-.304 1.288 3.21 3.21 0 0 1-1.952 1.692c-.42.136-.883.145-1.298.135l-1.277-.007-2.551-.012-5.104-.023-2.553-.013a2.995 2.995 0 0 0-2.245.941c-.584.61-.871 1.463-.828 2.31l-.011 2.554-.025 5.11-.025-5.11-.012-2.555c-.054-.854.232-1.744.83-2.375a3.102 3.102 0 0 1 2.316-.997l2.553-.012 5.104-.025 2.551-.011 1.277-.006c.432.006.833-.008 1.227-.136a2.951 2.951 0 0 0 1.78-1.574c.171-.369.263-.773.268-1.18-.004-.417.016-.862-.03-1.255a2.924 2.924 0 0 0-1.236-2.008 2.838 2.838 0 0 0-1.109-.457c-.388-.075-.813-.042-1.241-.046l-5.105.024-20.415.037-1.276.002c-.42-.008-.85.029-1.314-.052a3.27 3.27 0 0 1-2.213-1.493 3.292 3.292 0 0 1-.47-1.284c-.06-.47-.03-.882-.039-1.31.008-.435-.02-.831.022-1.305a3.324 3.324 0 0 1 2.615-2.863c.226-.043.457-.064.684-.067l.638-.002 1.276-.001 5.104-.01 20.416-.033c.425-.006.862.02 1.225-.041a2.74 2.74 0 0 0 2.268-2.294c.056-.362.029-.804.034-1.228.005-.42-.041-.78-.18-1.145a2.738 2.738 0 0 0-1.562-1.584 2.905 2.905 0 0 0-1.133-.191l-1.276.001-2.552.005-5.105.008-10.207.017-5.103.009-2.552.004-1.276.001a3.43 3.43 0 0 1-1.388-.276 3.457 3.457 0 0 1-1.887-2.038c-.162-.437-.199-.967-.188-1.378.006-.44-.016-.822.011-1.308a3.414 3.414 0 0 1 1.33-2.445 3.439 3.439 0 0 1 1.994-.71l.648-.005 10.208-.015 10.208.017 5.104.008 1.275.002c.417-.005.88.019 1.228-.022a2.704 2.704 0 0 0 1.867-1.131c.216-.306.365-.66.434-1.028a3.3 3.3 0 0 0 .05-.569l.001-.639a2.736 2.736 0 0 0-.806-2.052c-.546-.535-1.277-.809-2.073-.779l-2.552-.004-10.208-.016-10.207-.017-5.106-.01a3.358 3.358 0 0 1-2.48-1.126c-.635-.68-.92-1.694-.853-2.562.01-.437-.017-.825.026-1.31a3.365 3.365 0 0 1 2.65-2.9c.229-.043.462-.065.692-.068l.638.002 1.276.001 2.552.005 10.207.017 5.104.008 2.553.004c.415-.005.872.014 1.254-.01a2.76 2.76 0 0 0 1.113-.338 2.818 2.818 0 0 0-.995-5.26c-.788-.054-1.684-.016-2.521-.03l-10.208-.017-5.103-.008c-.428-.004-.843.005-1.284-.008a3.236 3.236 0 0 1-1.308-.332 3.23 3.23 0 0 1-1.687-2.03 3.262 3.262 0 0 1 .374-2.605 3.215 3.215 0 0 1 2.173-1.465c.452-.079.882-.042 1.303-.048l1.276.006 2.551.012 10.206.045a2.971 2.971 0 0 0 2.881-3.334 3.006 3.006 0 0 0-1.243-2.083 2.925 2.925 0 0 0-1.14-.492c-.41-.085-.838-.053-1.263-.062l-1.277-.006c-.422.008-.864-.025-1.268-.173a3.112 3.112 0 0 1-1.833-1.707c-.366-.803-.212-1.69-.24-2.531l.012-2.555z"/>
        <path fill="#5E5D59" d="M67.475 129.626c0 4.215 4.47 7.632 9.985 7.632s9.985-3.417 9.985-7.632h-19.97z"/>
        <path fill="#676562" d="M76.622 107.158l-11.048.096-5.525.05-1.38.01c-.473-.021-.86.06-1.215.316-.695.506-1.02 1.416-.991 2.287-.036.89.23 1.789.884 2.336.327.266.709.412 1.14.389l1.38-.007 5.525-.027 11.048-.055 11.049-.039 5.524-.009 1.38-.002c.24.003.436-.011.736.015.277.038.543.132.78.266.955.565 1.398 1.636 1.424 2.642.028 1.006-.345 2.09-1.236 2.735a2.298 2.298 0 0 1-.75.342c-.28.074-.561.056-.771.06l-1.382.002-5.524.01-11.048.017-11.048-.017-5.525-.01-1.38-.002c-.249.003-.433-.01-.602.038a1.58 1.58 0 0 0-.5.226c-.628.443-.96 1.3-.933 2.117.01.816.396 1.657 1.054 2.04.162.092.337.153.517.18.159.016.423.01.645.012l1.381.003 5.524.008 11.048.038 11.05.056 5.523.027 1.38.007c.495-.028 1.032.172 1.41.499.78.662 1.058 1.729 1.004 2.659.012.953-.357 1.983-1.186 2.565-.206.14-.438.247-.684.305-.249.064-.504.046-.724.047l-1.382-.012-5.524-.05-11.048-.096 11.048-.098 5.524-.048 1.382-.013c.472.022.858-.058 1.213-.313.695-.507 1.02-1.417.991-2.287.037-.891-.231-1.788-.885-2.337a1.623 1.623 0 0 0-1.139-.387l-1.38.007-5.524.027-11.049.055-11.048.038-5.524.009-1.38.002c-.24-.003-.436.01-.737-.016a2.205 2.205 0 0 1-.78-.266c-.954-.565-1.398-1.636-1.423-2.641-.029-1.007.344-2.09 1.236-2.737.223-.154.478-.274.749-.342.28-.073.563-.056.772-.06l1.381-.002 5.525-.009 11.048-.017 11.048.019 5.524.008 1.382.002c.248-.002.432.01.6-.037.176-.043.345-.121.502-.227.628-.442.96-1.3.932-2.117-.009-.816-.396-1.657-1.054-2.04a1.48 1.48 0 0 0-.517-.18c-.159-.017-.423-.011-.645-.013l-1.38-.002-5.525-.008-11.049-.04-11.048-.053-5.524-.028-1.38-.006c-.495.027-1.032-.172-1.41-.5-.778-.662-1.058-1.727-1.002-2.658-.013-.953.356-1.983 1.185-2.565a2.08 2.08 0 0 1 .682-.305c.25-.064.505-.045.725-.046l1.381.011 5.525.05 11.048.096z"/>
    </g>
</svg>
