<svg xmlns="http://www.w3.org/2000/svg" xmlns:xlink="http://www.w3.org/1999/xlink" width="156" height="156" viewBox="0 0 156 156">
    <defs>
        <path id="a" d="M0 .08h155.124v155.124H0z"/>
        <radialGradient id="c" fx="50%" fy="50%" gradientTransform="matrix(0 1 -1.01564 0 1.008 0)">
            <stop offset="0%" stop-color="#FFC600"/>
            <stop offset="100%" stop-color="#EEE"/>
        </radialGradient>
    </defs>
    <g fill="none" fill-rule="evenodd">
        <g transform="translate(0 .716)">
            <mask id="b" fill="#fff">
                <use xlink:href="#a"/>
            </mask>
            <path fill="#EEE" d="M155.125 77.642c0 23.702-10.634 44.921-27.388 59.145-13.53 11.484-31.04 18.417-50.175 18.417-.478 0-.963-.008-1.44-.016-19.04-.342-36.405-7.554-49.73-19.262C10.213 121.72 0 100.874 0 77.642 0 34.806 34.725.08 77.562.08c42.837 0 77.563 34.726 77.563 77.562" mask="url(#b)"/>
        </g>
        <path fill="url(#c)" d="M155 77.665H82.255l71.85-11.38-.105-.661-71.85 11.38 69.184-22.48-.206-.637-69.186 22.48 64.817-33.026-.303-.596-64.819 33.027 58.854-42.76-.394-.542-58.853 42.76 51.44-51.44-.473-.474-51.44 51.44 42.76-58.853-.542-.394-42.76 58.855 33.026-64.82-.596-.303-33.027 64.818 22.481-69.187-.637-.206-22.48 69.184L90.376 2l-.661-.104-11.38 71.85V1h-.67v72.746l-11.38-71.85-.661.104 11.38 71.85-22.48-69.184-.637.206 22.48 69.187L43.342 9.24l-.596.303 33.027 64.82-42.76-58.855-.542.394 42.76 58.853-51.44-51.44-.474.473 51.44 51.44-58.853-42.76-.394.542 58.854 42.76L9.544 42.746l-.304.596L74.06 76.368 4.872 53.887l-.207.637 69.184 22.48L2 65.624l-.104.661 71.849 11.38H1v.67h72.745l-71.85 11.38.105.661 71.85-11.38-69.185 22.48.207.637 69.187-22.48L9.24 112.658l.304.596 64.819-33.027-58.854 42.76.394.542 58.853-42.76-51.44 51.44.473.474 51.44-51.44-42.76 58.853.542.394 42.76-58.855-33.026 64.82.596.303 33.027-64.818-22.481 69.187.637.206 22.48-69.184L65.624 154l.661.104 11.38-71.85V155h.67V82.254l11.38 71.85.661-.104-11.38-71.85 22.48 69.184.637-.206-22.48-69.187 33.026 64.818.596-.303-33.027-64.82 42.76 58.855.542-.394-42.76-58.853 51.44 51.44.474-.473-51.44-51.44 58.853 42.76.394-.542-58.854-42.76 64.819 33.026.303-.596-64.817-33.027 69.186 22.481.206-.637-69.184-22.48L154 90.376l.104-.661-71.849-11.38H155z"/>
        <path fill="#DFA703" d="M59.58 142.333l.016-.813c.253-12.395-13.798-20.97-13.94-21.056l-.628-.376 26.681-54.174 5.33-3.603 5.33 3.603 26.682 54.173-.627.377c-.142.086-14.193 8.678-13.94 21.056l.016.813H59.58z"/>
        <path fill="#FFF" d="M77.04 61.35l-.892.603-4.71 3.184-.35.237-.186.378-26.265 53.326-.647 1.315 1.256.754c.137.082 13.798 8.45 13.554 20.358l-.033 1.624h36.545l-.033-1.624c-.244-11.94 13.416-20.275 13.553-20.358l1.257-.754-.647-1.315-26.265-53.326-.187-.378-.35-.237-4.71-3.184-.89-.603zm0 1.922l4.709 3.183 26.265 53.327s-14.592 8.755-14.327 21.755H60.392c.265-13-14.327-21.755-14.327-21.755l26.266-53.327 4.708-3.183z"/>
        <path fill="#C99609" d="M77.04 141.537V63.272l4.709 3.183 26.265 53.327s-14.592 8.755-14.327 21.755H77.04z"/>
        <path fill="#FF6A00" d="M77.04 116.2c-.176-10.416-.252-20.832-.38-31.248l-.113-15.625-.027-3.906-.013-1.953c-.01-.668.012-1.28-.101-1.862-.37-2.378-2.232-4.425-4.54-5.029-.572-.176-1.163-.209-1.767-.225l-1.953.013-3.906.026-7.812.031-7.813.018-3.906.008c-1.429-.005-2.874-.398-4.085-1.178a7.579 7.579 0 0 1-2.816-3.191 7.151 7.151 0 0 1-.627-2.058c-.069-.356-.075-.717-.094-1.076l-.005-.983-.01-3.907c-.007-.311.01-.673.03-1.037.032-.357.082-.718.164-1.069.148-.709.433-1.38.772-2.017a7.748 7.748 0 0 1 3.045-3.005 8.274 8.274 0 0 1 2.033-.745 10.07 10.07 0 0 1 2.1-.168l7.812-.018 31.249.056 15.624.035c2.589-.001 5.244.029 7.776.001 2.355-.088 4.573-1.657 5.456-3.858.232-.543.353-1.126.432-1.71.046-.565.037-1.247.044-1.893l.026-3.906.006-.975c-.021-.297-.006-.599-.065-.892-.067-.594-.25-1.168-.488-1.715a6.347 6.347 0 0 0-2.298-2.698 6.39 6.39 0 0 0-3.402-1.043l-3.904-.03-7.812-.053-7.812-.07c-1.312-.026-2.584-.005-3.928-.07a6.79 6.79 0 0 1-1.98-.448 6.635 6.635 0 0 1-1.77-.983 7.044 7.044 0 0 1-2.375-3.206c-.246-.627-.364-1.296-.42-1.962-.043-.678.002-1.312.005-1.968l.17-7.812.17 7.812c.02.646.006 1.315.059 1.937.066.627.19 1.252.435 1.833a6.55 6.55 0 0 0 2.277 2.934 6.092 6.092 0 0 0 1.65.87 6.24 6.24 0 0 0 1.823.369c1.257.031 2.591-.018 3.884-.023l7.812-.069 7.812-.055 3.908-.025c1.398.005 2.799.4 3.982 1.16a7.449 7.449 0 0 1 2.738 3.133c.29.639.514 1.318.605 2.018.071.347.065.702.091 1.053l.007.978.026 3.906c.001.657.026 1.277-.022 2.012-.081.705-.223 1.41-.493 2.07a7.554 7.554 0 0 1-2.588 3.334 7.431 7.431 0 0 1-3.99 1.403c-2.673.043-5.227.022-7.847.036l-15.624.036-31.249.055-7.812-.018a8.552 8.552 0 0 0-1.787.127 6.739 6.739 0 0 0-1.626.588 6.218 6.218 0 0 0-2.452 2.4c-.572 1.03-.828 2.136-.79 3.385l-.008 3.907v.969c.018.29.016.583.074.87.076.576.253 1.136.498 1.663a6.13 6.13 0 0 0 2.269 2.595c.981.638 2.141.958 3.315.971l3.906.009 7.813.017 7.812.03 3.906.028 1.953.013c.693.024 1.416.08 2.09.297 2.745.76 4.899 3.21 5.295 6.01.065.347.076.698.089 1.049.01.342-.001.656 0 .985l-.015 1.953-.026 3.906-.113 15.625c-.128 10.416-.205 20.832-.38 31.248M98.729 138.474v14.367a77.444 77.444 0 0 1-21.689 3.08c-3.296 0-6.534-.208-9.718-.606a75.792 75.792 0 0 1-8.89-1.647 58.118 58.118 0 0 1-3.08-.827v-14.367h43.377z"/>
        <path fill="#FFF" d="M78.863 116.2a1.824 1.824 0 1 1-3.648 0 1.824 1.824 0 0 1 3.648 0"/>
        <path fill="#FFF" d="M67.322 139.947v15.369a75.629 75.629 0 0 1-8.89-1.649v-13.72h8.89z" opacity=".25"/>
    </g>
</svg>
