<svg xmlns="http://www.w3.org/2000/svg" width="157" height="157" viewBox="0 0 157 157">
    <defs>
        <linearGradient id="a" x1="50%" x2="50%" y1="2.719%" y2="109.216%">
            <stop offset="0%" stop-color="#FFD200"/>
            <stop offset="100%" stop-color="#B9A010"/>
        </linearGradient>
        <filter id="b" width="248.1%" height="248.1%" x="-74%" y="-74%" filterUnits="objectBoundingBox">
            <feGaussianBlur in="SourceGraphic" stdDeviation="4.936"/>
        </filter>
        <filter id="c" width="248.1%" height="248.1%" x="-74%" y="-74%" filterUnits="objectBoundingBox">
            <feGaussianBlur in="SourceGraphic" stdDeviation="4.936"/>
        </filter>
        <filter id="d" width="333%" height="333%" x="-116.5%" y="-116.5%" filterUnits="objectBoundingBox">
            <feGaussianBlur in="SourceGraphic" stdDeviation="2.33"/>
        </filter>
        <filter id="e" width="333%" height="333%" x="-116.5%" y="-116.5%" filterUnits="objectBoundingBox">
            <feGaussianBlur in="SourceGraphic" stdDeviation="2.33"/>
        </filter>
    </defs>
    <g fill="none" fill-rule="evenodd">
        <circle cx="78.5" cy="78.5" r="78.5" fill="url(#a)"/>
        <path fill="#A8910C" d="M78.507 132.5c26.733 0 41.941-11.24 45.625-33.721.982-5.996-3.082-11.652-9.077-12.634a11 11 0 0 0-1.779-.145H43.738c-6.075 0-11 4.925-11 11a11 11 0 0 0 .145 1.779c3.683 22.48 18.891 33.721 45.624 33.721z"/>
        <path fill="#D74E4E" d="M51 126.503C55.91 119.123 66.674 114 79.164 114c12.26 0 22.857 4.936 27.887 12.098-7.272 4.268-16.732 6.402-28.38 6.402-11.273 0-20.497-1.999-27.671-5.997z"/>
        <path fill="#FFF" d="M44 86h70v3a5 5 0 0 1-5 5H49a5 5 0 0 1-5-5v-3z"/>
        <path fill="#000" d="M58 53c0-6.075-4.925-11-11-11s-11 4.925-11 11 22 6.075 22 0zM122 53c0-6.075-4.925-11-11-11s-11 4.925-11 11 22 6.075 22 0z"/>
        <circle cx="25" cy="73" r="10" fill="#D74E4E" filter="url(#b)" opacity=".5"/>
        <circle cx="130" cy="73" r="10" fill="#D74E4E" filter="url(#c)" opacity=".5"/>
        <circle cx="42" cy="44" r="3" fill="#FFF" filter="url(#d)"/>
        <circle cx="116" cy="44" r="3" fill="#FFF" filter="url(#e)"/>
    </g>
</svg>
