<svg xmlns="http://www.w3.org/2000/svg" width="157" height="157" viewBox="0 0 157 157">
    <defs>
        <linearGradient id="a" x1="50%" x2="50%" y1="2.719%" y2="151.767%">
            <stop offset="0%" stop-color="#F7CD01"/>
            <stop offset="100%" stop-color="#C70E0E"/>
        </linearGradient>
    </defs>
    <g fill="none" fill-rule="evenodd">
        <circle cx="78.5" cy="78.5" r="78.5" fill="url(#a)"/>
        <path fill="#000" d="M44.381 46.035l-11.38-6.57a4 4 0 1 1 4-6.928l18.186 10.5a4.002 4.002 0 0 1 1.868 4.489 3.57 3.57 0 0 1-2.013 2.52c-.16.083-.325.155-.494.216l-12.675 5.552a4 4 0 0 1-5.069-1.664l-.21-.363a3.58 3.58 0 0 1 1.664-5.07l6.123-2.682zM112.807 46.035l11.38-6.57a4 4 0 1 0-4-6.928l-18.186 10.5a4.002 4.002 0 0 0-1.868 4.489 3.57 3.57 0 0 0 2.013 2.52c.16.083.325.155.494.216l12.675 5.552a4 4 0 0 0 5.069-1.664l.21-.363a3.58 3.58 0 0 0-1.664-5.07l-6.123-2.682z"/>
        <path stroke="#64570D" stroke-linecap="round" stroke-width="7" d="M40 99c8.83-18.667 21.83-28 39-28s30.17 9.333 39 28"/>
    </g>
</svg>
