<svg xmlns="http://www.w3.org/2000/svg" width="157" height="157" viewBox="0 0 157 157">
    <defs>
        <linearGradient id="a" x1="50%" x2="50%" y1="2.719%" y2="109.216%">
            <stop offset="0%" stop-color="#FFD200"/>
            <stop offset="100%" stop-color="#B9A010"/>
        </linearGradient>
    </defs>
    <g fill="none" fill-rule="evenodd">
        <circle cx="78.5" cy="78.5" r="78.5" fill="url(#a)"/>
        <path fill="#FFF" d="M78.507 132.5c26.733 0 41.941-11.24 45.625-33.721.982-5.996-3.082-11.652-9.077-12.634a11 11 0 0 0-1.779-.145H43.738c-6.075 0-11 4.925-11 11a11 11 0 0 0 .145 1.779c3.683 22.48 18.891 33.721 45.624 33.721z"/>
        <path fill="#000" d="M58 53c0-6.075-4.925-11-11-11s-11 4.925-11 11 22 6.075 22 0zM122 53c0-6.075-4.925-11-11-11s-11 4.925-11 11 22 6.075 22 0z"/>
        <path fill="#D8D8D8" d="M34 105h89l-1 2H35z"/>
    </g>
</svg>
