<svg xmlns="http://www.w3.org/2000/svg" xmlns:xlink="http://www.w3.org/1999/xlink" width="154" height="156" viewBox="0 0 154 156">
    <defs>
        <path id="a" d="M0 .08h153.66v155.124H0z"/>
        <radialGradient id="c" fx="50%" fy="50%" gradientTransform="matrix(0 1 -1.01564 0 1.008 0)">
            <stop offset="0%" stop-color="#FFC600"/>
            <stop offset="100%" stop-color="#EEE"/>
        </radialGradient>
        <path id="d" d="M26.109.503H.363l4.764 50.498h41.962L51.854.503"/>
        <path id="f" d="M26.109.503H.363l4.764 50.498h41.962L51.854.503"/>
    </defs>
    <g fill="none" fill-rule="evenodd">
        <g transform="translate(0 .716)">
            <mask id="b" fill="#fff">
                <use xlink:href="#a"/>
            </mask>
            <path fill="#EEE" d="M153.66 77.642c0 23.702-10.533 44.921-27.13 59.145-13.403 11.484-30.747 18.417-49.7 18.417-.473 0-.955-.008-1.427-.016-18.86-.342-36.062-7.554-49.26-19.262C10.115 121.72-.001 100.874-.001 77.642 0 34.806 34.397.08 76.83.08c42.431 0 76.83 34.726 76.83 77.562" mask="url(#b)"/>
        </g>
        <path fill="url(#c)" d="M153 77.67H81.2l70.916-11.233-.103-.653-70.917 11.233 68.286-22.188-.204-.629L80.891 76.39l63.975-32.598-.3-.588L80.59 75.8l58.09-42.205-.389-.535-58.09 42.204 50.773-50.772-.467-.467-50.772 50.772 42.204-58.089-.535-.389L79.2 74.41l32.598-63.977-.588-.299L78.611 74.11 100.8 5.822l-.629-.204-22.188 68.286L89.216 2.987l-.653-.103L77.33 73.801V2h-.66v71.8L65.437 2.885l-.653.103 11.233 70.917L53.829 5.618l-.629.204L75.39 74.11 42.79 10.134l-.588.3L74.8 74.41 32.596 16.32l-.535.388 42.204 58.09-50.772-50.773-.467.467 50.772 50.772L15.71 33.061l-.389.535L73.41 75.8 9.433 43.203l-.3.588L73.11 76.389 4.822 54.2l-.204.629 68.285 22.188L1.987 65.784l-.103.653L72.8 77.67H1v.66h71.8L1.884 89.563l.103.653 70.916-11.233-68.285 22.188.204.629L73.11 79.61 9.133 112.21l.3.588L73.41 80.2l-58.09 42.205.389.535 58.09-42.204-50.773 50.772.467.467 50.772-50.772-42.204 58.089.535.389L74.8 81.59l-32.598 63.977.588.299L75.389 81.89 53.2 150.178l.629.204 22.188-68.286-11.233 70.917.653.103L76.67 82.199V154h.66V82.2l11.233 70.916.653-.103-11.233-70.917 22.188 68.286.629-.204L78.61 81.89l32.598 63.976.588-.3L79.2 81.59l42.205 58.09.535-.388-42.204-58.09 50.772 50.773.467-.467-50.772-50.772 58.089 42.204.389-.535L80.59 80.2l63.977 32.598.299-.588-63.975-32.598 68.287 22.189.204-.629-68.286-22.188 70.917 11.233.103-.653L81.2 78.33H153z" transform="translate(0 .716)"/>
        <path fill="#FFCC8E" d="M74.66 54.546H48.913l4.763 50.498h41.964l4.764-50.498z"/>
        <path fill="#FFCC8E" d="M63.547 67.04l-13.273 1.376-3.772-36.356a6.671 6.671 0 0 1 5.949-7.325 6.672 6.672 0 0 1 7.325 5.948l3.771 36.356zM86.085 63.024L99.359 64.4l3.771-36.356a6.67 6.67 0 0 0-5.948-7.325 6.672 6.672 0 0 0-7.325 5.948l-3.772 36.356zM96.17 97.377l14.151-10.495a10.824 10.824 0 0 0 4.01-5.9l3.152-11.783a5.549 5.549 0 0 0-10.628-3.18l-3.1 6.403a10.54 10.54 0 0 1-4.752 5.825l-8.44 4.85 5.606 14.28z"/>
        <path fill="#F6BA88" d="M68.764 78.372a6.2 6.2 0 0 1-6.36-6.033l-.453-17.08a6.199 6.199 0 1 1 12.394-.329l.452 17.08a6.2 6.2 0 0 1-6.033 6.362M81.23 78.599a6.199 6.199 0 0 0 6.032-6.361l-.452-17.081a6.2 6.2 0 0 0-12.394.327l.452 17.082a6.2 6.2 0 0 0 6.361 6.033"/>
        <g opacity=".6">
            <g transform="translate(48.551 54.043)">
                <mask id="e" fill="#fff">
                    <use xlink:href="#d"/>
                </mask>
                <path fill="#F6C08A" d="M-7.865 41.609c0-10.408 8.438-18.847 18.847-18.847 10.408 0 18.846 8.439 18.846 18.847 0 10.409-8.438 18.847-18.846 18.847-10.409 0-18.847-8.438-18.847-18.847" mask="url(#e)"/>
            </g>
            <g transform="translate(48.551 54.043)">
                <mask id="g" fill="#fff">
                    <use xlink:href="#f"/>
                </mask>
                <path fill="#F6C08A" d="M22.387 41.609c0-10.408 8.439-18.847 18.848-18.847 10.408 0 18.845 8.439 18.845 18.847 0 10.409-8.437 18.847-18.845 18.847-10.41 0-18.848-8.438-18.848-18.847" mask="url(#g)"/>
            </g>
        </g>
        <g>
            <path fill="#1E1210" d="M96.192 120.55H53.126a4.212 4.212 0 0 1-4.212-4.214V101.57a4.212 4.212 0 0 1 4.212-4.212h43.066a4.212 4.212 0 0 1 4.212 4.212v14.766a4.213 4.213 0 0 1-4.212 4.213"/>
            <path fill="#5E5E61" d="M78.491 108.954a3.832 3.832 0 1 1-7.663 0 3.832 3.832 0 0 1 7.663 0M93.004 108.954a3.831 3.831 0 1 1-7.662 0 3.831 3.831 0 0 1 7.662 0M63.427 108.954a3.832 3.832 0 1 1-7.664 0 3.832 3.832 0 0 1 7.664 0M48.914 105.044l-3.599 3.002a1.17 1.17 0 0 0 .01 1.804l3.589 2.936v-7.742zM100.404 105.044l3.598 3.002a1.17 1.17 0 0 1-.009 1.804l-3.589 2.936v-7.742z"/>
            <path fill="#FFCC8E" d="M90.559 120.55v34.018a77.404 77.404 0 0 1-14.462 1.352c-3.295 0-6.534-.206-9.718-.604a77.084 77.084 0 0 1-8.867-1.64V120.55H90.56z"/>
        </g>
    </g>
</svg>
