<svg xmlns="http://www.w3.org/2000/svg" xmlns:xlink="http://www.w3.org/1999/xlink" width="156" height="156" viewBox="0 0 156 156">
    <defs>
        <path id="a" d="M0 .08h155.92V156H0z"/>
        <radialGradient id="c" fx="50%" fy="50%" gradientTransform="matrix(0 1 -1.01564 0 1.008 0)">
            <stop offset="0%" stop-color="#FFC600"/>
            <stop offset="100%" stop-color="#EEE"/>
        </radialGradient>
    </defs>
    <g fill="none" fill-rule="evenodd">
        <g>
            <mask id="b" fill="#fff">
                <use xlink:href="#a"/>
            </mask>
            <path fill="#EEE" d="M155.92 78.04c0 23.824-10.688 45.152-27.528 59.448C114.792 149.032 97.192 156 77.96 156c-.48 0-.968-.008-1.448-.016-19.136-.344-36.592-7.592-49.984-19.36C10.264 122.344 0 101.392 0 78.04 0 34.984 34.904.08 77.96.08c43.056 0 77.96 34.904 77.96 77.96" mask="url(#b)"/>
        </g>
        <path fill="url(#c)" d="M156 77.66H82.31l72.782-11.527-.105-.67-72.783 11.528 70.083-22.772-.21-.645-70.084 22.772 65.659-33.455-.307-.604-65.66 33.456 59.618-43.316-.4-.549-59.617 43.315 52.108-52.108-.48-.48-52.107 52.109 43.315-59.618-.549-.399-43.316 59.62 33.456-65.662-.604-.307-33.455 65.66 22.772-70.086-.645-.209L79.01 73.796 90.537 1.013l-.67-.105L78.339 73.69V0h-.678v73.69L66.133.908l-.67.105 11.528 72.783L54.219 3.713l-.645.21 22.772 70.085-33.455-65.66-.604.307 33.456 65.661-43.316-59.619-.549.4 43.315 59.617-52.108-52.108-.48.48 52.109 52.107-59.618-43.315-.399.549 59.619 43.316-65.66-33.456-.309.604 65.66 33.455L3.923 53.574l-.21.645L73.796 76.99 1.013 65.463l-.105.67L73.69 77.661H0v.678h73.69L.908 89.867l.105.67 72.782-11.528-70.082 22.772.21.645 70.085-22.772-65.66 33.455.307.604 65.66-33.456-59.618 43.316.4.549 59.617-43.315-52.108 52.108.48.48 52.107-52.109-43.315 59.618.549.399 43.316-59.62-33.456 65.662.604.307 33.455-65.66-22.772 70.086.645.209L76.99 82.204l-11.528 72.783.67.105L77.661 82.31V156h.678V82.31l11.528 72.782.67-.105-11.528-72.783 22.772 70.083.645-.21-22.772-70.085 33.455 65.66.604-.307-33.456-65.661 43.316 59.619.549-.4-43.315-59.617 52.108 52.108.48-.48-52.109-52.107 59.618 43.315.399-.549-59.619-43.316 65.66 33.456.308-.604-65.66-33.455 70.086 22.772.209-.645L82.204 79.01l72.783 11.528.105-.67L82.31 78.339H156z"/>
        <path fill="#E57913" d="M91.959 120.391V103H62.143v17.391L27 136.554c13.41 11.81 30.89 19.085 50.05 19.43.481.008.97.016 1.45.016 19.258 0 36.882-6.993 50.5-18.58l-37.041-17.029z"/>
        <path fill="#F2C289" d="M62.199 120.177l12.721 4.453a6.594 6.594 0 0 0 4.358 0L92 120.177V105H62l.199 15.177z"/>
        <path fill="#FFCC8E" d="M53 71a6 6 0 1 1-12 0 6 6 0 0 1 12 0"/>
        <path fill="#FFBA8F" d="M50 71.5a3.5 3.5 0 1 1-7 0 3.5 3.5 0 0 1 7 0"/>
        <path fill="#FFCC8E" d="M112 71a6 6 0 1 1-12 0 6 6 0 0 1 12 0"/>
        <path fill="#FFBA8F" d="M110 71.5a3.5 3.5 0 1 1-7 0 3.5 3.5 0 0 1 7 0"/>
        <path fill="#FFCC8E" d="M76.5 114C60.207 114 47 100.8 47 84.519V48.48C47 32.2 60.207 19 76.5 19 92.792 19 106 32.199 106 48.481V84.52C106 100.8 92.792 114 76.5 114"/>
        <path fill="#FFBA8F" d="M72.925 95.595L60 92c1.661 8.853 6.964 14.226 11.115 15.931a14.1 14.1 0 0 0 10.77 0C86.036 106.226 91.34 100.853 93 92l-12.925 3.595c-2.369.387-4.781.387-7.15 0"/>
        <path fill="#000" d="M93 92c-2.182 11.124-10.664 14.047-14.542 14.809a10.12 10.12 0 0 1-3.917 0C70.663 106.047 62.186 103.124 60 92l2.014.314 10.914 1.704c2.365.371 4.778.371 7.148 0l11.041-1.724L93 92z"/>
        <path fill="#FFBA8F" d="M77.251 89h-.502A3.75 3.75 0 0 1 73 85.25v-25.5A3.75 3.75 0 0 1 76.749 56h.502A3.75 3.75 0 0 1 81 59.75v25.5A3.75 3.75 0 0 1 77.251 89"/>
        <path fill="#FFBA8F" d="M81.012 85h-9.024A2.994 2.994 0 0 1 69 82c0-1.657 1.338-3 2.988-3h9.024A2.994 2.994 0 0 1 84 82c0 1.657-1.337 3-2.988 3"/>
        <path fill="#FFF" d="M85 103.728c-2.272 1.22-4.476 1.806-5.994 2.087a10.965 10.965 0 0 1-4.013 0c-1.518-.28-3.721-.867-5.993-2.087 1.385-2.199 4.448-3.728 8.001-3.728 3.55 0 6.613 1.53 7.999 3.728"/>
        <path fill="#E11111" d="M85 103.728c-2.272 1.22-4.476 1.806-5.994 2.087a10.965 10.965 0 0 1-4.013 0c-1.518-.28-3.721-.867-5.993-2.087 1.385-2.199 4.448-3.728 8.001-3.728 3.55 0 6.613 1.53 7.999 3.728"/>
        <path fill="#FFF" d="M91 92v1.428a.63.63 0 0 1-.529.632l-12.908 1.857a8.176 8.176 0 0 1-2.255.01l-12.775-1.732A.63.63 0 0 1 62 93.56V92.02l10.875 1.786c2.357.39 4.76.39 7.122 0L91 92z"/>
        <path fill="#FF6A00" d="M76.5 19C60.207 19 47 32.219 47 48.526V82c7.035-8.246 22.765-8.593 27.868-8.475 1.09.025 2.175.025 3.264 0 5.103-.118 20.833.23 27.868 8.475V48.526C106 32.219 92.793 19 76.5 19"/>
        <path fill="#FF8700" d="M106 48.232V53c0-16.14-13.205-29.232-29.5-29.232S47 36.859 47 53v-4.768C47 32.092 60.205 19 76.5 19S106 32.091 106 48.232"/>
        <path fill="#E1AE77" d="M106 82.913l-.477 3.038c-7.036-8.655-22.285-8.877-27.388-8.752a64.395 64.395 0 0 1-3.27 0c-5.103-.125-20.41.146-27.447 8.801L47 82.913c7.035-8.654 22.762-9.017 27.865-8.898 1.092.028 2.178.028 3.27 0 5.103-.119 20.829.244 27.865 8.898" opacity=".25"/>
        <path fill="#D15810" d="M94 64.5a3.5 3.5 0 1 1-7 0 3.5 3.5 0 0 1 7 0"/>
        <path fill="#000" d="M94 62.5a3.5 3.5 0 1 1-7 0 3.5 3.5 0 0 1 7 0"/>
        <path fill="#D15810" d="M66 64.5a3.5 3.5 0 1 1-7 0 3.5 3.5 0 0 1 7 0"/>
        <path fill="#000" d="M66 62.5a3.5 3.5 0 1 1-7 0 3.5 3.5 0 0 1 7 0"/>
        <path fill="#FFF" d="M64 63a1 1 0 1 1-2 0 1 1 0 0 1 2 0M91 63a1 1 0 1 1-2 0 1 1 0 0 1 2 0"/>
        <path fill="#FFC600" d="M75.372 30.088l-9.635 2.74c-1.34.382-2.065 1.865-1.592 3.215 2.823 8.058 7.67 13.698 10.204 16.26.92.93 2.383.93 3.303 0 2.534-2.562 7.38-8.202 10.203-16.26.473-1.35-.251-2.833-1.591-3.214l-9.636-2.741a2.289 2.289 0 0 0-1.256 0"/>
        <path fill="#FF6A00" d="M83.865 35.698l.135-.172-.21-.095-3.779-1.702-3.796-1.657L76.05 32l-.19.077a567.235 567.235 0 0 0-7.721 3.2l-1.139.48 1.085.629c2.222 1.284 4.468 2.528 6.701 3.794l3.369 1.865 2.723 1.496c-1.625 1.996-3.24 4-4.842 6.016l-2.794-3.158-3.143-3.47 1.252-1.538-1.487 1.465-.068.068.065.085 2.898 3.801 2.941 3.764.333.426.373-.425a628.335 628.335 0 0 0 5.896-6.82l.49-.575-.665-.376-3.35-1.9-3.355-1.89c-1.89-1.038-3.773-2.088-5.666-3.12a570.9 570.9 0 0 0 6.306-2.88l3.696 1.36 3.701 1.31c-.608.908-1.207 1.824-1.796 2.746.745-.904 1.48-1.813 2.202-2.732"/>
    </g>
</svg>
