<svg xmlns="http://www.w3.org/2000/svg" width="612" height="570" viewBox="0 0 612 570">
    <g fill="none" fill-rule="evenodd" opacity=".5">
        <circle cx="306" cy="285" r="285" fill="#EEE"/>
        <path fill="#FFF" d="M109.164 306.036V265.15c0-8.204.265-17.665.794-28.383.53-10.718 1.059-20.046 1.588-27.985h-1.588a1426.295 1426.295 0 0 1-9.924 21.039 808.883 808.883 0 0 1-10.718 21.435l-33.344 54.781h53.192zm83.362 44.46h-28.978v60.338h-54.384v-60.338H0v-40.093l92.095-151.64h71.453v147.273h28.978v44.46zm114.325 65.101c-13.497 0-25.803-2.845-36.917-8.534-11.115-5.69-20.576-14.092-28.383-25.207-7.807-11.115-13.894-24.876-18.26-41.284-4.367-16.408-6.55-35.33-6.55-56.766s2.183-40.225 6.55-56.368c4.366-16.143 10.453-29.706 18.26-40.689 7.807-10.982 17.268-19.186 28.383-24.611 11.114-5.425 23.42-8.138 36.917-8.138s25.802 2.713 36.917 8.138c11.115 5.425 20.576 13.629 28.383 24.611 7.807 10.983 13.894 24.546 18.26 40.689 4.367 16.143 6.55 34.932 6.55 56.368s-2.183 40.358-6.55 56.766c-4.366 16.408-10.453 30.169-18.26 41.284-7.807 11.115-17.268 19.517-28.383 25.207-11.115 5.69-23.42 8.534-36.917 8.534zm0-45.253c5.028 0 9.66-1.257 13.894-3.771 4.234-2.514 7.939-7.08 11.114-13.696 3.176-6.616 5.624-15.48 7.344-26.596 1.72-11.115 2.58-25.273 2.58-42.475 0-17.201-.86-31.293-2.58-42.276-1.72-10.983-4.168-19.583-7.344-25.803-3.175-6.219-6.88-10.519-11.114-12.9-4.235-2.383-8.866-3.573-13.894-3.573-4.764 0-9.263 1.19-13.497 3.572s-7.939 6.682-11.115 12.901c-3.175 6.22-5.69 14.82-7.542 25.803-1.852 10.983-2.779 25.075-2.779 42.276 0 17.202.927 31.36 2.78 42.475 1.852 11.115 4.366 19.98 7.541 26.596 3.176 6.617 6.881 11.182 11.115 13.696 4.234 2.514 8.733 3.77 13.497 3.77zm221.504-64.308V265.15c0-8.204.265-17.665.794-28.383.53-10.718 1.059-20.046 1.588-27.985h-1.588a1426.305 1426.305 0 0 1-9.924 21.039 808.88 808.88 0 0 1-10.718 21.435l-33.345 54.781h53.193zm83.362 44.46h-28.978v60.338h-54.384v-60.338H419.191v-40.093l92.095-151.64h71.453v147.273h28.978v44.46z"/>
    </g>
</svg>
