<svg xmlns="http://www.w3.org/2000/svg" width="80" height="80" viewBox="0 0 80 80">
    <g fill="none" fill-rule="evenodd">
        <path fill="#3DB39E" d="M79.664 39.97c0 22-17.834 39.833-39.832 39.833C17.833 79.803 0 61.969 0 39.97 0 17.972 17.833.139 39.832.139c21.998 0 39.832 17.833 39.832 39.832z"/>
        <path fill="#37A18E" d="M73.191 18.25L37.964 54.722l.063 3.92h1.618l38.152-30.745c-1.12-3.423-2.677-6.722-4.606-9.647z"/>
        <path fill="#F2F1EF" d="M78.918 16.508l-7.034-6.97c-.933-.934-2.49-.934-3.485 0L38.338 40.593 25.33 27.773c-.933-.934-2.489-.934-3.484 0l-6.224 6.16a2.442 2.442 0 0 0 0 3.424l20.787 20.6c.56.56 1.307.748 2.054.685.747.063 1.493-.124 2.053-.684l38.402-37.966c.932-.995.932-2.551 0-3.484z"/>
        <path fill="#E6E5E3" d="M40.516 57.958l38.402-37.966a2.443 2.443 0 0 0 0-3.422l-1.12-1.058L38.4 54.223 16.617 33l-.933.934a2.443 2.443 0 0 0 0 3.423l20.788 20.6c.56.56 1.307.748 2.053.685.685.063 1.431-.124 1.991-.684z"/>
    </g>
</svg>
