<svg xmlns="http://www.w3.org/2000/svg" xmlns:xlink="http://www.w3.org/1999/xlink" width="155" height="156" viewBox="0 0 155 156">
    <defs>
        <path id="a" d="M0 .08h154.92v155.124H0z"/>
        <radialGradient id="c" fx="50%" fy="50%" gradientTransform="matrix(0 1 -1.01564 0 1.008 0)">
            <stop offset="0%" stop-color="#FFC600"/>
            <stop offset="100%" stop-color="#EEE"/>
        </radialGradient>
    </defs>
    <g fill="none" fill-rule="evenodd">
        <g transform="translate(0 .716)">
            <mask id="b" fill="#fff">
                <use xlink:href="#a"/>
            </mask>
            <path fill="#EEE" d="M154.92 77.642c0 23.702-10.618 44.921-27.351 59.145-13.513 11.484-31 18.417-50.109 18.417-.477 0-.962-.008-1.439-.016-19.013-.342-36.357-7.554-49.663-19.262C10.198 121.72 0 100.874 0 77.642 0 34.806 34.68.08 77.46.08c42.78 0 77.46 34.726 77.46 77.562" mask="url(#b)"/>
        </g>
        <path fill="url(#c)" d="M154 77.665H81.255l71.85-11.38-.105-.661-71.85 11.38 69.184-22.48-.206-.637-69.186 22.48 64.817-33.026-.303-.596-64.819 33.027 58.854-42.76-.394-.542-58.853 42.76 51.44-51.44-.473-.474-51.44 51.44 42.76-58.853-.542-.394-42.76 58.855 33.026-64.82-.596-.303-33.027 64.818 22.481-69.187-.637-.206-22.48 69.184L89.376 2l-.661-.104-11.38 71.85V1h-.67v72.746l-11.38-71.85-.661.104 11.38 71.85-22.48-69.184-.637.206 22.48 69.187L42.342 9.24l-.596.303 33.027 64.82-42.76-58.855-.542.394 42.76 58.853-51.44-51.44-.474.473 51.44 51.44-58.853-42.76-.394.542 58.854 42.76L8.544 42.746l-.304.596L73.06 76.368 3.872 53.887l-.207.637 69.184 22.48L1 65.624l-.104.661 71.849 11.38H0v.67h72.745L.895 89.715l.105.661 71.85-11.38-69.185 22.48.207.637 69.187-22.48L8.24 112.658l.304.596 64.819-33.027-58.854 42.76.394.542 58.853-42.76-51.44 51.44.473.474 51.44-51.44-42.76 58.853.542.394 42.76-58.855-33.026 64.82.596.303 33.027-64.818-22.481 69.187.637.206 22.48-69.184L64.624 154l.661.104 11.38-71.85V155h.67V82.254l11.38 71.85.661-.104-11.38-71.85 22.48 69.184.637-.206-22.48-69.187 33.026 64.818.596-.303-33.027-64.82 42.76 58.855.542-.394-42.76-58.853 51.44 51.44.474-.473-51.44-51.44 58.853 42.76.394-.542-58.854-42.76 64.819 33.026.303-.596-64.817-33.027 69.186 22.481.206-.637-69.184-22.48L153 90.376l.104-.661-71.849-11.38H154z"/>
        <path fill="#E57913" d="M65.745 84.445l-19.75-9.07v-7.898H32.436v7.898l-19.75 9.07L6.023 95.68l33.192 14.628L72.407 95.68z"/>
        <path fill="#875103" d="M129.932 83.439h-29.021v-40.87c0-8.025 6.496-14.53 14.51-14.53s14.511 6.505 14.511 14.53v40.87z"/>
        <path fill="#E57913" d="M141.97 84.445l-19.751-9.07v-7.898H108.66v7.898l-19.75 9.07-6.663 11.235 33.192 14.628L148.63 95.68z"/>
        <path fill="#000" d="M113.457 95.725L86.703 83.438V72.74H68.34v10.698L41.586 95.725l-9.023 15.217 44.958 19.815 44.96-19.815z"/>
        <path fill="#FFC600" d="M77.521 137.576l-12.66 6.665 2.418-14.115-10.242-9.997 14.155-2.06 6.33-12.842 6.329 12.843 14.155 2.06-10.243 9.996 2.418 14.115z"/>
        <path fill="#FFF" d="M77.521 104.328l-.712 1.446-5.881 11.932-13.15 1.913-1.595.232 1.153 1.126 9.517 9.287-2.247 13.115-.272 1.59 1.426-.75 11.761-6.193 11.762 6.192 1.426.75-.272-1.59-2.247-13.114 9.516-9.287 1.154-1.126-1.595-.232-13.15-1.913-5.881-11.932-.713-1.446zm0 1.798l6.066 12.308 13.565 1.973-9.816 9.58 2.318 13.526-12.133-6.386-12.132 6.386 2.317-13.527-9.815-9.58 13.565-1.972 6.065-12.308z"/>
        <path fill="#F4B600" d="M77.521 106.126v18.693l6.066-6.385zM97.151 120.407l-19.63 4.413 9.815 5.167zM89.653 143.513L77.521 124.82v12.307z"/>
        <path fill="#F4B600" d="M65.39 143.513l12.132-18.693-9.815 5.167zM57.891 120.407l19.63 4.413-6.066-6.386z"/>
        <path fill="#F2C289" d="M68.34 83.439l7.839 2.752c.87.305 1.816.305 2.685 0l7.84-2.752V74.06H68.217l.123 9.379zM32.505 75.826l5.744 2.017a2.98 2.98 0 0 0 1.968 0l5.745-2.017v-6.873H32.415l.09 6.873zM108.738 75.826l5.744 2.017a2.98 2.98 0 0 0 1.969 0l5.744-2.017v-6.873h-13.547l.09 6.873z"/>
        <path fill="#FFCC8E" d="M77.521 28.04c-10.662 0-18.9 9.377-17.538 19.966l2.248 17.498a13.102 13.102 0 0 0 5.35 8.972l6.177 4.437a6.448 6.448 0 0 0 7.526 0l6.178-4.437a13.102 13.102 0 0 0 5.35-8.972l2.248-17.498c1.361-10.59-6.876-19.967-17.539-19.967"/>
        <path fill="#000" d="M56.308 54.082s22.163-3.375 28.496-13.68l.535-17.813a3.172 3.172 0 0 0-3.168-3.269h-.43c-14.046 0-25.433 11.402-25.433 25.467v9.295z"/>
        <path fill="#000" d="M85.208 26.937l-.577 14.57c-.102 2.59.894 5.115 2.78 6.893 2.196 2.07 5.398 4.368 8.791 4.368l.95-19.974s-4.257-6.96-11.944-5.857"/>
        <path fill="#875103" d="M53.708 67.477H24.687V42.568c0-8.024 6.497-14.529 14.51-14.529 8.014 0 14.51 6.505 14.51 14.53v24.908z"/>
        <path fill="#FFCC8E" d="M39.216 34.476c-7.872 0-13.953 6.923-12.949 14.74l1.66 12.919a9.676 9.676 0 0 0 3.95 6.623l4.56 3.276a4.761 4.761 0 0 0 5.557 0l4.56-3.276a9.67 9.67 0 0 0 3.95-6.623l1.66-12.918c1.005-7.818-5.077-14.741-12.948-14.741"/>
        <path fill="#875103" d="M23.555 53.702s16.361-2.492 21.037-10.098l.395-13.152a2.341 2.341 0 0 0-2.339-2.413h-.317c-10.37 0-18.776 8.418-18.776 18.802v6.861z"/>
        <path fill="#875103" d="M44.89 33.662l-.426 10.756c-.074 1.896.642 3.753 2.019 5.056 1.621 1.537 4.001 3.257 6.523 3.257l.529-11.107c.19-3.987-2.67-7.614-6.637-8.01a8.324 8.324 0 0 0-2.008.048"/>
        <path fill="#FFCC8E" d="M115.44 34.476c-7.872 0-13.953 6.923-12.948 14.74l1.66 12.919a9.676 9.676 0 0 0 3.949 6.623l4.56 3.276a4.76 4.76 0 0 0 5.557 0l4.56-3.276a9.67 9.67 0 0 0 3.95-6.623l1.66-12.918c1.005-7.818-5.076-14.741-12.948-14.741"/>
        <path fill="#875103" d="M130.718 53.702s-16.362-2.492-21.037-10.098l-.395-13.152a2.34 2.34 0 0 1 2.338-2.413h.318c10.37 0 18.776 8.418 18.776 18.802v6.861z"/>
        <path fill="#875103" d="M109.382 33.662l.425 10.756c.076 1.896-.64 3.753-2.017 5.056-1.621 1.537-4.001 3.257-6.523 3.257l-.529-11.107c-.19-3.987 2.67-7.614 6.636-8.01a8.325 8.325 0 0 1 2.008.048"/>
    </g>
</svg>
