<svg xmlns="http://www.w3.org/2000/svg" width="20" height="19" viewBox="0 0 20 19">
    <path fill="#D0021B" fill-rule="evenodd" d="M11.445 15.352v-2.11a.375.375 0 0 0-.117-.273.375.375 0 0 0-.273-.117h-2.11a.375.375 0 0 0-.273.117.375.375 0 0 0-.117.273v2.11c0 .104.039.195.117.273a.63.63 0 0 0 .273.078h2.11a.63.63 0 0 0 .273-.078.375.375 0 0 0 .117-.273zm-.039-4.18l.196-5.117c0-.078-.04-.157-.118-.235a.375.375 0 0 0-.273-.117H8.789a.375.375 0 0 0-.273.117c-.079.078-.118.157-.118.235l.196 5.117c0 .052.039.117.117.195.052.052.13.078.234.078h2.07a.63.63 0 0 0 .274-.078c.078-.078.117-.143.117-.195zM11.25.742l8.555 15.703c.286.47.286.938 0 1.407-.078.156-.248.338-.508.546a1.642 1.642 0 0 1-.742.157H1.445c-.286 0-.534-.052-.742-.157-.26-.208-.43-.39-.508-.546-.286-.47-.286-.938 0-1.407L8.75.742c.078-.156.247-.338.508-.547C9.518.065 9.766 0 10 0c.234 0 .482.065.742.195.26.209.43.39.508.547z"/>
</svg>
