<svg xmlns="http://www.w3.org/2000/svg" xmlns:xlink="http://www.w3.org/1999/xlink" width="80" height="80" viewBox="0 0 80 80">
    <defs>
        <path id="a" d="M0 .156h79.844v79.833H0z"/>
    </defs>
    <g fill="none" fill-rule="evenodd">
        <g>
            <mask id="b" fill="#fff">
                <use xlink:href="#a"/>
            </mask>
            <path fill="#DD424C" d="M39.922.156c22.048 0 39.922 17.874 39.922 39.922S61.97 80 39.922 80 0 62.126 0 40.078 17.874.156 39.922.156" mask="url(#b)"/>
            <path fill="#DC3A42" d="M79.844 40.078C79.844 62.035 61.879 80 39.922 80 27.197 80 15.97 74.261 8.733 65.03c6.737 5.489 15.47 8.732 24.951 8.732 21.957 0 39.922-17.965 39.922-39.922 0-9.481-3.243-18.214-8.733-24.951 9.232 7.236 14.971 18.464 14.971 31.19" mask="url(#b)"/>
        </g>
        <path fill="#FFFFFE" d="M58.136 58.292c-1.497 1.497-3.992 1.497-5.489 0L39.922 45.567 27.197 58.292c-1.497 1.497-3.992 1.497-5.49 0-1.496-1.497-1.496-3.992 0-5.489l12.726-12.725-12.725-12.725c-1.497-1.497-1.497-3.992 0-5.49 1.497-1.497 3.992-1.497 5.489 0L39.922 34.59l12.725-12.725c1.497-1.498 3.992-1.498 5.49 0 1.497 1.497 1.497 3.992 0 5.489L45.41 40.078l12.725 12.725c1.498 1.497 1.498 3.992 0 5.49"/>
    </g>
</svg>
